<svg width="41" height="41" viewBox="0 0 41 41" fill="none" xmlns="http://www.w3.org/2000/svg">
<path d="M20.5 0C9.17839 0 0 9.17839 0 20.5C0 30.1799 6.71139 38.2877 15.7336 40.4371C15.2669 40.3258 14.8043 40.2013 14.3501 40.0595V35.3626C14.3501 35.3626 13.5812 35.6188 12.5562 35.6188C9.68862 35.6188 8.49716 33.0602 8.2 31.7751C8.01946 30.9921 7.54792 30.25 7.04163 29.7967C6.43693 29.2573 6.15407 29.2559 6.15014 29.0715C6.14201 28.6843 6.66877 28.7 6.91884 28.7C8.2 28.7 9.17138 30.0633 9.62245 30.7681C10.7396 32.5082 11.9389 32.8 12.5562 32.8C13.3249 32.8 13.9888 32.6848 14.4463 32.4642C14.6574 30.9755 15.3198 29.6492 16.4 28.7C11.5927 27.739 8.2 24.9815 8.2 20.5C8.2 18.1914 9.12653 16.0698 10.6704 14.3563C10.5125 13.9092 10.2501 13.0048 10.2501 11.5313C10.2501 10.5574 10.3177 9.3623 10.7626 8.2C10.7626 8.2 13.686 8.22047 16.4435 10.8318C17.7159 10.4612 19.0775 10.2501 20.5 10.2501C21.9225 10.2501 23.2841 10.4612 24.5565 10.8318C27.314 8.22047 30.2374 8.2 30.2374 8.2C30.6845 9.3623 30.7499 10.5574 30.7499 11.5313C30.7499 13.12 30.5388 14.0465 30.4092 14.4463C31.906 16.1438 32.8 18.2323 32.8 20.5C32.8 24.9815 29.4073 27.739 24.6 28.7C25.8837 29.8275 26.6499 31.4698 26.6499 33.3125V40.0595C26.1957 40.2021 25.7337 40.3258 25.2664 40.4371C34.2886 38.2877 41 30.1799 41 20.5C41 9.17839 31.8216 0 20.5 0Z" fill="url(#paint0_linear_15_13)"/>
<defs>
<linearGradient id="paint0_linear_15_13" x1="20.5" y1="0" x2="20.5" y2="41" gradientUnits="userSpaceOnUse">
<stop/>
<stop offset="1" stop-color="#2D2D2D"/>
</linearGradient>
</defs>
</svg>
