<svg width="231" height="100" viewBox="0 0 231 100" fill="none" xmlns="http://www.w3.org/2000/svg">
<path d="M32.9041 47.7473C32.5663 50.7259 30.2638 53.1169 27.2588 53.6098L8.01431 56.7661C1.54209 57.8276 -2.61702 50.1749 1.88891 45.4957L23.2969 23.2644C27.8029 18.5852 35.7953 22.2572 35.0676 28.6723L32.9041 47.7473Z" fill="url(#paint0_linear_13_6)"/>
<path d="M19.1187 52.3002C19.4261 49.3176 21.7049 46.9028 24.7057 46.3799L43.9191 43.0325C50.3798 41.9068 54.6149 49.5168 50.1568 54.2409L28.9755 76.6862C24.5174 81.4102 16.489 77.8198 17.1507 71.398L19.1187 52.3002Z" fill="url(#paint1_linear_13_6)"/>
<path d="M68.6 77V19.72H78.96V41.56H79.12C80.3733 39.4 82.1733 37.6667 84.52 36.36C86.8933 35.0267 89.52 34.36 92.4 34.36C97.0133 34.36 100.64 35.7733 103.28 38.6C105.92 41.4 107.24 45.16 107.24 49.88V77H96.68V52.36C96.68 49.5867 96 47.4133 94.64 45.84C93.28 44.24 91.24 43.44 88.52 43.44C85.9333 43.44 83.72 44.4267 81.88 46.4C80.0667 48.3467 79.16 50.7867 79.16 53.72V77H68.6ZM132.706 78.08C126.386 78.08 121.172 76.0267 117.066 71.92C112.959 67.7867 110.906 62.5467 110.906 56.2C110.906 49.9067 112.946 44.6933 117.026 40.56C121.132 36.4267 126.252 34.36 132.386 34.36C138.519 34.36 143.492 36.2533 147.306 40.04C151.119 43.8267 153.026 48.6267 153.026 54.44V58.56H116.226V52.4H143.226C143.039 49.6533 141.972 47.4 140.026 45.64C138.106 43.8533 135.586 42.96 132.466 42.96C129.132 42.96 126.346 44.1733 124.106 46.6C121.892 49 120.786 52.1867 120.786 56.16C120.786 60.2933 121.999 63.6 124.426 66.08C126.852 68.5333 129.826 69.76 133.346 69.76C135.052 69.76 136.559 69.52 137.866 69.04C139.172 68.56 140.346 67.88 141.386 67C142.452 66.12 143.599 64.7867 144.826 63L152.066 67.2C150.386 70 148.639 72.1333 146.826 73.6C145.039 75.0667 143.026 76.1867 140.786 76.96C138.546 77.7067 135.852 78.08 132.706 78.08ZM157.081 77V19.72H167.641V77H157.081ZM175.167 77V35.44H185.727V77H175.167ZM180.447 29.84C178.714 29.84 177.22 29.24 175.967 28.04C174.74 26.8133 174.127 25.32 174.127 23.56C174.127 21.8 174.74 20.3333 175.967 19.16C177.22 17.96 178.714 17.36 180.447 17.36C182.26 17.36 183.767 17.96 184.967 19.16C186.167 20.3333 186.767 21.8 186.767 23.56C186.767 25.32 186.167 26.8133 184.967 28.04C183.767 29.24 182.26 29.84 180.447 29.84ZM218.419 77L206.139 58.16H204.659L188.579 35.44H200.899L213.179 54.2H214.739L230.619 77H218.419ZM188.339 77L204.219 53.84H206.619L218.459 35.44H229.979L214.259 58.04H211.899L199.699 77H188.339Z" fill="url(#paint2_linear_13_6)"/>
<defs>
<linearGradient id="paint0_linear_13_6" x1="26" y1="21.1531" x2="26" y2="78.8469" gradientUnits="userSpaceOnUse">
<stop stop-color="white"/>
<stop offset="1" stop-color="#BEBEBE"/>
</linearGradient>
<linearGradient id="paint1_linear_13_6" x1="26" y1="21.1531" x2="26" y2="78.8469" gradientUnits="userSpaceOnUse">
<stop stop-color="white"/>
<stop offset="1" stop-color="#BEBEBE"/>
</linearGradient>
<linearGradient id="paint2_linear_13_6" x1="147.5" y1="0" x2="147.5" y2="100" gradientUnits="userSpaceOnUse">
<stop stop-color="white"/>
<stop offset="1" stop-color="#BEBEBE"/>
</linearGradient>
</defs>
</svg>
